<svg width="15" height="14" viewBox="0 0 15 14" fill="none" xmlns="http://www.w3.org/2000/svg">
<path d="M0.0160378 13.984H3.01207V3.99796H0.0160378V13.984ZM11.6881 3.65205C10.2341 3.65205 8.93305 4.18305 8.01013 5.35509V3.96511H5.00312V13.9841H8.01013V8.56609C8.01013 7.42106 9.05916 6.30405 10.3731 6.30405C11.6871 6.30405 12.0111 7.42106 12.0111 8.53808V13.9831H15.0072V8.31509C15.0071 4.37802 13.1431 3.65205 11.6881 3.65205ZM1.50005 3.00001C2.32806 3.00001 3.00009 2.32798 3.00009 1.49997C3.00009 0.671954 2.32806 3.05176e-05 1.50005 3.05176e-05C0.672033 3.05176e-05 0 0.672063 0 1.50008C0 2.32809 0.672033 3.00001 1.50005 3.00001Z" fill="#090E16"/>
</svg>
