<svg width="26" height="26" viewBox="0 0 26 26" fill="none" xmlns="http://www.w3.org/2000/svg">
<path d="M7.80004 6.23999C6.00718 6.23999 4.28774 6.9522 3.02 8.21995C1.75225 9.48769 1.04004 11.2071 1.04004 13C1.04004 14.7929 1.75225 16.5123 3.02 17.78C4.28774 19.0478 6.00718 19.76 7.80004 19.76C9.5929 19.76 11.3123 19.0478 12.5801 17.78C13.8478 16.5123 14.56 14.7929 14.56 13C14.56 11.2071 13.8478 9.48769 12.5801 8.21995C11.3123 6.9522 9.5929 6.23999 7.80004 6.23999ZM18.46 6.75999C16.5932 6.75999 15.08 9.55395 15.08 13C15.08 13.6464 15.1331 14.2693 15.2319 14.8554C15.3634 15.6369 15.5761 16.3524 15.8517 16.9692C15.9895 17.2775 16.1429 17.5609 16.3098 17.8152C16.6437 18.3238 17.0316 18.7164 17.4549 18.9597C17.7726 19.1417 18.1101 19.24 18.46 19.24C18.81 19.24 19.1475 19.1417 19.4652 18.9597C19.8885 18.7164 20.2764 18.3238 20.6102 17.8152C20.7772 17.5609 20.9306 17.2775 21.0684 16.9692C21.344 16.353 21.5566 15.6369 21.6882 14.8554C21.787 14.2693 21.84 13.6464 21.84 13C21.84 9.55395 20.3268 6.75999 18.46 6.75999ZM23.66 7.27999C23.5254 7.27999 23.3954 7.36995 23.2737 7.53739C23.192 7.64867 23.114 7.79427 23.0407 7.97055C23.0038 8.05843 22.9679 8.15411 22.9336 8.25707C22.8644 8.46247 22.8 8.69699 22.7412 8.95543C22.6237 9.47283 22.5285 10.0896 22.4625 10.7739C22.4297 11.116 22.4042 11.4754 22.3866 11.8477C22.3689 12.2195 22.36 12.6053 22.36 13C22.36 13.3947 22.3689 13.7805 22.3866 14.1528C22.4037 14.5252 22.4292 14.8845 22.4625 15.2266C22.5285 15.911 22.6237 16.5272 22.7412 17.0451C22.8 17.304 22.8644 17.538 22.9336 17.7434C22.9679 17.8464 23.0038 17.9421 23.0407 18.03C23.1146 18.2062 23.1926 18.3518 23.2737 18.4631C23.3954 18.63 23.5254 18.72 23.66 18.72C24.3782 18.72 24.96 16.159 24.96 13C24.96 9.84099 24.3782 7.27999 23.66 7.27999Z" fill="#090E16"/>
</svg>
